<svg width="24" height="24" viewBox="0 0 24 24" fill="none" xmlns="http://www.w3.org/2000/svg">
<path d="M14.9892 16.376C15.0902 16.3764 15.19 16.3974 15.2826 16.4378C15.3751 16.4783 15.4583 16.5372 15.5271 16.611C15.8284 16.9424 15.8284 17.4817 15.5278 17.8125L13.4973 20.0317C12.9423 20.6374 12.2046 20.9715 11.4199 20.9715C10.6351 20.9715 9.8974 20.6374 9.34256 20.0317L3.71431 13.8801C2.62434 12.7027 1.99917 11.0666 2.00001 9.39091C1.99753 8.03973 2.37791 6.74636 3.10049 5.65059C4.19408 3.99087 5.96568 3 7.83955 3C9.06741 3 10.2449 3.41639 11.2446 4.20359C11.2941 4.24348 11.3557 4.26528 11.4193 4.26535C11.4829 4.26542 11.5447 4.24377 11.5942 4.20399C12.5894 3.42799 13.7609 3.0174 14.9818 3.0174C16.5547 3.01763 18.029 3.69054 19.1341 4.91225C19.4802 5.29463 19.781 5.71557 20.0306 6.16674C20.1725 6.52958 20.0653 6.95762 19.7719 7.19094C19.6425 7.29594 19.481 7.35352 19.3143 7.35407C19.1928 7.35318 19.0733 7.32308 18.966 7.26633C18.8587 7.20958 18.7666 7.12784 18.6976 7.02803C18.5103 6.68407 18.2829 6.36343 18.0203 6.07278C17.2018 5.22226 16.1293 4.75383 15 4.75383C13.8708 4.75383 12.7984 5.22241 11.9692 6.08478C11.8999 6.16303 11.8146 6.22557 11.7191 6.2682C11.6236 6.31083 11.5201 6.33258 11.4155 6.33197C11.3109 6.33135 11.2077 6.30841 11.1127 6.26466C11.0177 6.22092 10.9332 6.15738 10.8648 6.07833C10.0561 5.19694 8.98165 4.71183 7.83974 4.71183C6.69784 4.71183 5.62338 5.19694 4.81418 6.07853C4.00192 6.96949 3.55803 8.144 3.5584 9.39289C3.5586 10.644 4.0046 11.8199 4.81418 12.7044L10.4481 18.8626C10.7084 19.1448 11.0535 19.3001 11.4199 19.3001C11.7906 19.3001 12.1386 19.1414 12.3989 18.8548L14.4472 16.6157C14.5162 16.5407 14.6 16.4807 14.6932 16.4395C14.7865 16.3982 14.8872 16.3767 14.9892 16.376Z" fill="#1A1C1E"/>
<path d="M22.22 10.4511C22.6499 10.4511 23 10.8337 23 11.3038C23 11.7739 22.6499 12.1563 22.22 12.1563H19.9843C19.944 12.1566 19.9043 12.1654 19.8677 12.1821C19.831 12.1987 19.7983 12.2229 19.7716 12.253L17.9372 14.2701C17.8684 14.347 17.7843 14.4087 17.6903 14.4513C17.5963 14.4939 17.4944 14.5164 17.3911 14.5175C17.2821 14.5124 17.1754 14.4839 17.0785 14.4338C16.9815 14.3837 16.8966 14.3132 16.8295 14.2273L13.8054 10.4617C13.7797 10.4279 13.7468 10.4003 13.709 10.381C13.6713 10.3617 13.6296 10.3512 13.5872 10.3501C13.5448 10.3491 13.5027 10.3576 13.464 10.375C13.4254 10.3925 13.3911 10.4184 13.3638 10.4508L11.9755 12.0272C11.9054 12.1051 11.8197 12.1673 11.724 12.2099C11.6282 12.2525 11.5246 12.2745 11.4198 12.2744H9.26004C8.82993 12.2744 8.47998 11.8918 8.47998 11.4215C8.47998 10.9513 8.83006 10.5692 9.26004 10.5692H10.9773C11.0174 10.5689 11.057 10.5601 11.0935 10.5436C11.13 10.527 11.1627 10.503 11.1893 10.4731L13.0319 8.45929C13.0441 8.44481 13.0567 8.43075 13.0684 8.41898C13.1394 8.34365 13.2256 8.28421 13.3214 8.24457C13.4171 8.20492 13.5201 8.18597 13.6237 8.18896C13.7272 8.19195 13.829 8.21682 13.9222 8.26192C14.0155 8.30702 14.0981 8.37134 14.1647 8.45064L17.1885 12.2168C17.2142 12.2505 17.2472 12.278 17.285 12.2972C17.3228 12.3165 17.3644 12.327 17.4068 12.3281C17.4493 12.3291 17.4914 12.3207 17.5301 12.3033C17.5688 12.2859 17.6031 12.2601 17.6304 12.2277L18.9672 10.707C19.0364 10.6282 19.1213 10.5648 19.2165 10.5207C19.3117 10.4767 19.415 10.4529 19.5199 10.451L22.22 10.4511Z" fill="#1A1C1E"/>
</svg>
